<svg width="158" height="35" viewBox="0 0 158 35" fill="none" xmlns="http://www.w3.org/2000/svg">
<path d="M0.816 27V0.719999H5.496L13.272 18.252H13.848L21.588 0.719999H26.304V27H22.776V4.572L23.028 4.644L15.576 21.564H11.256L3.768 4.644L4.056 4.572V27H0.816ZM42.2852 27.648C40.6052 27.648 39.1292 27.36 37.8572 26.784C36.5852 26.208 35.5052 25.452 34.6172 24.516C33.7532 23.556 33.0932 22.488 32.6372 21.312C32.2052 20.136 31.9892 18.936 31.9892 17.712V17.064C31.9892 15.84 32.2172 14.64 32.6732 13.464C33.1292 12.264 33.8012 11.196 34.6892 10.26C35.5772 9.3 36.6572 8.544 37.9292 7.992C39.2012 7.416 40.6532 7.128 42.2852 7.128C43.9172 7.128 45.3692 7.416 46.6412 7.992C47.9132 8.544 48.9932 9.3 49.8812 10.26C50.7692 11.196 51.4412 12.264 51.8972 13.464C52.3532 14.64 52.5812 15.84 52.5812 17.064V17.712C52.5812 18.936 52.3532 20.136 51.8972 21.312C51.4652 22.488 50.8052 23.556 49.9172 24.516C49.0532 25.452 47.9852 26.208 46.7132 26.784C45.4412 27.36 43.9652 27.648 42.2852 27.648ZM42.2852 24.552C43.7252 24.552 44.9492 24.24 45.9572 23.616C46.9892 22.968 47.7692 22.104 48.2972 21.024C48.8492 19.944 49.1252 18.732 49.1252 17.388C49.1252 16.02 48.8492 14.796 48.2972 13.716C47.7452 12.636 46.9532 11.784 45.9212 11.16C44.9132 10.536 43.7012 10.224 42.2852 10.224C40.8932 10.224 39.6812 10.536 38.6492 11.16C37.6172 11.784 36.8252 12.636 36.2732 13.716C35.7212 14.796 35.4452 16.02 35.4452 17.388C35.4452 18.732 35.7092 19.944 36.2372 21.024C36.7892 22.104 37.5692 22.968 38.5772 23.616C39.6092 24.24 40.8452 24.552 42.2852 24.552ZM57.7573 27V7.776H60.4933V16.02H60.0613C60.0613 14.148 60.3013 12.564 60.7813 11.268C61.2853 9.948 62.0293 8.94 63.0133 8.244C63.9973 7.548 65.2453 7.2 66.7573 7.2H66.9013C68.4133 7.2 69.6613 7.548 70.6453 8.244C71.6533 8.94 72.3973 9.948 72.8773 11.268C73.3573 12.564 73.5973 14.148 73.5973 16.02H72.5893C72.5893 14.148 72.8413 12.564 73.3453 11.268C73.8493 9.948 74.5933 8.94 75.5773 8.244C76.5853 7.548 77.8453 7.2 79.3573 7.2H79.5013C81.0133 7.2 82.2733 7.548 83.2813 8.244C84.2893 8.94 85.0333 9.948 85.5133 11.268C86.0173 12.564 86.2693 14.148 86.2693 16.02V27H82.8133V15.264C82.8133 13.704 82.4293 12.504 81.6613 11.664C80.8933 10.8 79.8253 10.368 78.4573 10.368C77.0413 10.368 75.9013 10.824 75.0373 11.736C74.1733 12.624 73.7413 13.872 73.7413 15.48V27H70.2853V15.264C70.2853 13.704 69.9013 12.504 69.1333 11.664C68.3653 10.8 67.2973 10.368 65.9293 10.368C64.5133 10.368 63.3733 10.824 62.5093 11.736C61.6453 12.624 61.2133 13.872 61.2133 15.48V27H57.7573ZM101.453 27.648C99.7732 27.648 98.2972 27.36 97.0252 26.784C95.7532 26.208 94.6732 25.452 93.7852 24.516C92.9212 23.556 92.2612 22.488 91.8052 21.312C91.3732 20.136 91.1572 18.936 91.1572 17.712V17.064C91.1572 15.84 91.3852 14.64 91.8412 13.464C92.2972 12.264 92.9692 11.196 93.8572 10.26C94.7452 9.3 95.8252 8.544 97.0972 7.992C98.3692 7.416 99.8212 7.128 101.453 7.128C103.085 7.128 104.537 7.416 105.809 7.992C107.081 8.544 108.161 9.3 109.049 10.26C109.937 11.196 110.609 12.264 111.065 13.464C111.521 14.64 111.749 15.84 111.749 17.064V17.712C111.749 18.936 111.521 20.136 111.065 21.312C110.633 22.488 109.973 23.556 109.085 24.516C108.221 25.452 107.153 26.208 105.881 26.784C104.609 27.36 103.133 27.648 101.453 27.648ZM101.453 24.552C102.893 24.552 104.117 24.24 105.125 23.616C106.157 22.968 106.937 22.104 107.465 21.024C108.017 19.944 108.293 18.732 108.293 17.388C108.293 16.02 108.017 14.796 107.465 13.716C106.913 12.636 106.121 11.784 105.089 11.16C104.081 10.536 102.869 10.224 101.453 10.224C100.061 10.224 98.8492 10.536 97.8172 11.16C96.7852 11.784 95.9932 12.636 95.4412 13.716C94.8892 14.796 94.6132 16.02 94.6132 17.388C94.6132 18.732 94.8772 19.944 95.4052 21.024C95.9572 22.104 96.7372 22.968 97.7452 23.616C98.7772 24.24 100.013 24.552 101.453 24.552ZM116.925 27V7.776H119.661V16.02H119.229C119.229 14.124 119.481 12.528 119.985 11.232C120.513 9.912 121.305 8.916 122.361 8.244C123.417 7.548 124.749 7.2 126.357 7.2H126.501C128.925 7.2 130.713 7.956 131.865 9.468C133.041 10.98 133.629 13.164 133.629 16.02V27H130.173V15.3C130.173 13.812 129.753 12.624 128.913 11.736C128.073 10.824 126.921 10.368 125.457 10.368C123.945 10.368 122.721 10.836 121.785 11.772C120.849 12.708 120.381 13.956 120.381 15.516V27H116.925ZM147.225 34.488C146.337 34.488 145.437 34.452 144.525 34.38C143.637 34.308 142.785 34.212 141.969 34.092V31.176C142.833 31.296 143.733 31.392 144.669 31.464C145.629 31.56 146.529 31.608 147.369 31.608C149.121 31.608 150.513 31.368 151.545 30.888C152.601 30.432 153.357 29.7 153.813 28.692C154.293 27.708 154.533 26.436 154.533 24.876V21.204L155.685 18.468C155.613 20.412 155.205 22.032 154.461 23.328C153.717 24.6 152.745 25.56 151.545 26.208C150.369 26.832 149.061 27.144 147.621 27.144C146.277 27.144 145.041 26.892 143.913 26.388C142.809 25.86 141.849 25.14 141.033 24.228C140.241 23.316 139.617 22.272 139.161 21.096C138.729 19.896 138.513 18.636 138.513 17.316V16.668C138.513 15.324 138.741 14.076 139.197 12.924C139.653 11.748 140.289 10.728 141.105 9.864C141.921 9 142.893 8.328 144.021 7.848C145.173 7.368 146.433 7.128 147.801 7.128C149.409 7.128 150.825 7.476 152.049 8.172C153.273 8.844 154.233 9.84 154.929 11.16C155.649 12.456 156.045 14.052 156.117 15.948L155.109 15.984V7.776H157.845V24.732C157.845 27.036 157.485 28.896 156.765 30.312C156.069 31.752 154.941 32.808 153.381 33.48C151.845 34.152 149.793 34.488 147.225 34.488ZM148.269 23.976C149.421 23.976 150.465 23.724 151.401 23.22C152.361 22.716 153.117 21.996 153.669 21.06C154.245 20.1 154.533 18.96 154.533 17.64V15.984C154.533 14.688 154.233 13.596 153.633 12.708C153.057 11.82 152.301 11.148 151.365 10.692C150.429 10.236 149.409 10.008 148.305 10.008C147.057 10.008 145.953 10.296 144.993 10.872C144.033 11.448 143.289 12.264 142.761 13.32C142.233 14.352 141.969 15.576 141.969 16.992C141.969 18.408 142.233 19.644 142.761 20.7C143.313 21.756 144.057 22.572 144.993 23.148C145.953 23.7 147.045 23.976 148.269 23.976Z" fill="#4A8DCB"/>
</svg>
